# xmcd
#
# Track frame offsets:
#	150
#	16083
#	34573
#	51582
#	66147
#	79804
#	96407
#	117093
#	130508
#	152635
#	167081
#	184175
#	196144
#	211229
#	221169
#	238943
#	253052
#
# Disc length: 3483 seconds
#
# Revision: 0
# Processed by: cddbd v1.5.2PL0 Copyright (c) Steve Scherf et al.
# Submitted via: FairStars CD Ripper 2.00
#
DISCID=ec0d9911
DTITLE=Little Toby Walker - Mileage
DYEAR=2016
DGENRE=Acoustic
TTITLE0=Seven-Day Wonder
TTITLE1=See My Grave Is Swept Clean
TTITLE2=Daley's Reel - Stoney Lonesome
TTITLE3=My Baby Owns A Whiskey Store
TTITLE4=Shady Grove
TTITLE5=You Don't Really Care
TTITLE6=Dim Lights, Thick Smoke
TTITLE7=Short'nin' Bread
TTITLE8=My Time After A While
TTITLE9=Shakin' Her Bacon
TTITLE10=Jimmy Brown The Newsboy
TTITLE11=Temperance Reel
TTITLE12=She Moves Me
TTITLE13=Lulu's Back In Town
TTITLE14=Delia
TTITLE15=Angeline The Baker
TTITLE16=You're Gonna Look Like A Monkey When You Get Old
EXTD=
EXTT0=
EXTT1=
EXTT2=
EXTT3=
EXTT4=
EXTT5=
EXTT6=
EXTT7=
EXTT8=
EXTT9=
EXTT10=
EXTT11=
EXTT12=
EXTT13=
EXTT14=
EXTT15=
EXTT16=
PLAYORDER=
